<?xml version="1.0" standalone="no"?>
<!DOCTYPE svg PUBLIC "-//W3C//DTD SVG 20010904//EN"
 "http://www.w3.org/TR/2001/REC-SVG-20010904/DTD/svg10.dtd">
<svg version="1.0" xmlns="http://www.w3.org/2000/svg"
 width="546.000000pt" height="202.000000pt" viewBox="0 0 546.000000 202.000000"
 preserveAspectRatio="xMidYMid meet">

<g transform="translate(0.000000,202.000000) scale(0.100000,-0.100000)"
fill="#000000" stroke="none">
<path d="M3045 1643 c-81 -10 -199 -38 -275 -65 -151 -54 -368 -174 -510 -283
l-56 -43 -393 -30 c-217 -17 -398 -35 -403 -40 -5 -5 -8 -40 -6 -78 l3 -69 45
-21 c44 -20 53 -20 360 -13 1109 26 1235 30 1250 44 21 19 302 24 324 6 20
-17 20 -55 0 -75 -13 -13 -42 -16 -165 -16 -97 0 -156 4 -168 12 -24 15 -1330
-18 -1346 -34 -7 -7 48 -8 176 -3 103 4 189 3 192 -1 2 -5 1 -19 -4 -31 -8
-22 -14 -23 -111 -24 -57 0 -123 -4 -148 -9 -31 -5 -1 -7 100 -6 l145 1 0 -30
0 -30 -120 -5 c-143 -7 -141 -14 5 -14 l105 -1 0 -30 c0 -20 -5 -30 -15 -31
-8 -1 -57 -2 -107 -2 -60 -1 -93 -6 -93 -13 0 -7 29 -10 88 -9 136 4 134 4
130 -27 l-3 -28 -100 -5 c-201 -10 -31 -17 233 -9 147 4 521 13 832 19 311 7
568 14 571 16 3 1 23 38 44 81 69 141 215 260 364 298 65 17 210 23 248 11 18
-6 21 -1 27 34 5 31 14 45 41 62 33 22 47 48 25 48 -5 0 -10 -4 -10 -9 0 -12
-35 -20 -49 -11 -14 8 -5 54 13 70 7 5 27 13 44 16 25 5 36 1 56 -19 24 -24
26 -32 26 -122 0 -78 -3 -97 -16 -102 -11 -4 1 -16 43 -43 79 -50 151 -124
193 -199 19 -34 40 -68 45 -77 10 -14 33 -15 190 -7 l180 8 8 65 c9 75 1 272
-14 357 -18 96 -33 119 -103 152 -33 16 -70 32 -80 35 -18 6 -16 10 14 41 l34
35 -74 0 c-58 0 -82 -5 -114 -23 -39 -22 -47 -23 -181 -17 l-140 6 -180 67
c-312 114 -555 180 -777 212 -93 13 -318 18 -393 8z m335 -158 c104 -20 184
-49 188 -67 2 -9 -14 -44 -36 -79 l-39 -64 -129 -7 c-71 -4 -286 -14 -479 -23
-192 -8 -371 -18 -397 -21 -29 -4 -48 -2 -48 4 0 24 214 154 334 204 100 41
178 59 286 67 118 9 222 4 320 -14z m418 -153 c39 -20 72 -40 72 -44 0 -5 -49
-8 -109 -8 -59 0 -129 -3 -155 -6 -55 -8 -60 5 -21 66 14 22 25 44 25 49 0 28
47 14 188 -57z m1127 -77 c43 -25 75 -74 75 -115 0 -19 -4 -21 -27 -15 -47 11
-126 50 -160 79 -31 26 -43 63 -25 80 13 14 94 -3 137 -29z"/>
<path d="M5135 1600 c-63 -29 -257 -85 -417 -121 -82 -18 -146 -34 -145 -36 2
-1 122 0 266 4 l263 6 45 70 c68 107 67 113 -12 77z"/>
<path d="M1105 1159 c-299 -35 -383 -57 -486 -125 -114 -75 -177 -169 -214
-321 -35 -139 -37 -133 38 -133 34 0 92 3 129 6 l67 7 17 55 c37 128 119 239
236 319 94 63 154 83 278 92 88 6 95 8 98 28 3 21 25 47 67 78 19 13 17 14
-25 14 -25 -1 -117 -9 -205 -20z m-265 -103 c0 -41 -81 -97 -199 -137 -58 -20
-101 -25 -101 -10 0 13 89 93 134 120 49 30 103 50 139 51 22 0 27 -4 27 -24z"/>
<path d="M1326 1114 c-10 -27 -7 -44 9 -44 10 0 15 10 15 30 0 32 -14 40 -24
14z"/>
<path d="M4331 1106 c-11 -13 -11 -20 -3 -28 8 -8 13 -7 18 5 10 27 0 41 -15
23z"/>
<path d="M3317 1023 c-3 -5 -2 -14 2 -21 8 -14 53 -4 48 12 -4 14 -43 20 -50
9z"/>
<path d="M1122 1009 c-122 -21 -247 -96 -324 -192 -44 -56 -91 -151 -103 -207
-15 -76 -2 -70 -153 -70 -75 0 -146 -3 -157 -6 -12 -3 -28 -23 -38 -49 -11
-25 -34 -65 -53 -89 -19 -25 -34 -47 -34 -50 0 -3 119 -6 265 -6 146 0 265 3
265 7 0 3 -5 35 -11 69 -22 128 20 271 108 365 62 67 104 93 193 120 59 18 88
21 162 17 77 -5 100 -11 163 -42 85 -42 165 -122 201 -201 33 -72 47 -177 35
-255 -6 -35 -9 -65 -7 -67 1 -2 472 -6 1046 -10 l1043 -6 -7 24 c-17 59 -18
165 -2 226 22 88 50 138 112 203 135 142 355 171 537 72 60 -32 140 -124 176
-202 24 -50 26 -66 26 -183 0 -127 0 -128 24 -134 35 -9 482 4 492 14 4 4 -10
35 -33 68 -38 57 -40 63 -34 115 3 30 7 68 8 84 l3 29 -140 -2 c-77 -1 -161
-4 -187 -8 l-47 -5 -32 67 c-48 102 -150 205 -253 255 -207 102 -435 63 -602
-104 -65 -65 -91 -106 -132 -208 -10 -24 -16 -27 -84 -32 -40 -3 -289 -10
-553 -16 -264 -6 -650 -15 -859 -21 -208 -6 -384 -8 -391 -5 -7 2 -18 25 -24
51 -27 109 -118 235 -216 300 -109 72 -262 106 -383 84z"/>
<path d="M1120 846 c-111 -32 -198 -103 -245 -200 -52 -105 -44 -255 19 -355
44 -69 135 -139 214 -162 23 -7 42 -16 42 -21 0 -4 -250 -8 -556 -8 l-555 0 3
-28 3 -27 2678 -3 2677 -2 0 30 0 30 -600 0 c-393 0 -600 3 -600 10 0 6 6 10
13 10 32 0 137 62 185 109 79 78 107 143 107 256 0 82 -3 97 -33 157 -67 136
-187 211 -337 211 -161 0 -288 -88 -346 -242 -29 -78 -24 -203 13 -281 42 -91
137 -172 236 -201 23 -7 42 -16 42 -21 0 -4 -632 -8 -1405 -8 -773 0 -1405 4
-1405 8 0 5 19 14 43 21 93 28 200 121 240 209 46 106 30 256 -39 358 -83 123
-259 190 -394 150z m169 -112 c68 -20 142 -87 166 -150 23 -60 17 -162 -13
-220 -40 -79 -145 -144 -232 -144 -47 0 -118 27 -160 60 -59 46 -91 108 -97
184 -11 129 51 226 171 268 64 22 98 22 165 2z m2927 1 c178 -53 239 -266 121
-418 -70 -90 -222 -121 -319 -64 -101 59 -145 145 -136 262 9 108 68 182 175
221 50 17 98 17 159 -1z"/>
</g>
</svg>
