<?xml version="1.0" standalone="no"?>
<!DOCTYPE svg PUBLIC "-//W3C//DTD SVG 20010904//EN"
 "http://www.w3.org/TR/2001/REC-SVG-20010904/DTD/svg10.dtd">
<svg version="1.0" xmlns="http://www.w3.org/2000/svg"
 width="300.000000pt" height="220.000000pt" viewBox="0 0 300.000000 220.000000"
 preserveAspectRatio="xMidYMid meet">

<g transform="translate(0.000000,220.000000) scale(0.100000,-0.100000)"
fill="#000000" stroke="none">
<path d="M1105 1749 c-110 -11 -232 -37 -281 -58 -74 -33 -159 -168 -205 -324
-21 -72 -26 -80 -75 -117 l-54 -40 6 -78 c16 -238 28 -278 95 -317 33 -20 52
-20 884 -20 794 0 852 1 882 18 62 33 75 78 88 292 l7 110 -50 36 c-45 34 -51
45 -81 130 -72 205 -137 295 -232 322 -155 44 -308 57 -638 56 -146 -1 -302
-5 -346 -10z m518 -8 l57 -1 0 -35 0 -35 -89 0 c-50 0 -92 4 -96 10 -3 5 -3
20 1 34 6 24 24 35 54 30 8 -1 41 -3 73 -3z m-173 -36 l0 -36 -92 3 c-80 3
-93 5 -96 21 -8 42 3 47 98 47 l90 0 0 -35z m464 -80 c119 -19 172 -40 210
-86 31 -36 88 -153 100 -203 l7 -29 -88 6 c-48 4 -225 10 -393 13 l-305 7 3
-116 3 -115 -63 -7 c-35 -4 -77 -5 -93 -3 l-30 3 0 105 c0 101 1 105 23 108
12 2 22 8 22 14 0 11 -216 7 -484 -9 l-109 -6 7 33 c16 81 94 209 150 245 29
19 163 44 287 55 159 13 635 4 753 -15z m-234 -426 l0 -112 -86 6 c-47 2 -87
6 -89 8 -3 4 -9 159 -6 192 1 15 12 17 91 17 l90 0 0 -111z m109 -139 c152
-12 158 -18 112 -105 -49 -95 -70 -107 -210 -118 -138 -10 -508 -1 -548 14
-40 15 -71 47 -99 101 -28 56 -30 83 -6 94 48 21 552 31 751 14z m-882 -29
c28 -14 55 -65 51 -94 -3 -22 -6 -22 -160 -21 -176 1 -198 8 -224 69 -27 65
-20 68 155 63 94 -3 165 -9 178 -17z m1469 4 c11 -27 -16 -85 -48 -101 -34
-17 -274 -32 -323 -20 -25 6 -27 10 -21 39 15 75 67 93 274 96 90 1 114 -2
118 -14z"/>
<path d="M1360 1320 c0 -5 7 -10 15 -10 8 0 15 5 15 10 0 6 -7 10 -15 10 -8 0
-15 -4 -15 -10z"/>
<path d="M1143 1012 c-34 -4 -64 -10 -68 -14 -4 -4 7 -32 24 -62 26 -45 39
-57 69 -66 21 -5 154 -10 310 -10 320 0 325 1 371 82 l30 53 -22 9 c-26 11
-624 17 -714 8z"/>
<path d="M413 1147 c-42 -48 -47 -82 -39 -256 13 -288 27 -357 81 -400 53 -41
89 -42 1045 -39 867 3 917 4 958 22 83 36 96 80 111 382 7 127 7 203 0 227
-10 37 -53 97 -70 97 -5 0 -9 -28 -9 -62 0 -103 -19 -241 -39 -278 -12 -24
-35 -44 -71 -62 l-52 -28 -860 0 c-842 0 -860 0 -898 20 -45 23 -84 77 -95
130 -4 19 -13 91 -19 159 l-11 124 -32 -36z m1331 -503 c18 -18 21 -60 6 -98
l-10 -26 -263 0 c-191 0 -266 3 -275 12 -16 16 -16 115 1 121 6 3 128 6 269 6
221 1 259 -1 272 -15z m-946 -67 c8 -9 7 -20 -1 -37 -12 -24 -16 -25 -122 -25
l-110 0 3 25 c1 14 10 31 19 38 23 17 197 17 211 -1z m1568 -12 c30 -46 15
-55 -95 -55 -105 0 -131 10 -131 50 0 25 12 28 117 29 88 1 93 0 109 -24z"/>
<path d="M2520 431 c-45 -32 -93 -43 -205 -47 -60 -1 -112 -3 -115 -3 -3 -1
-4 -35 -2 -76 l4 -75 -728 2 -729 3 0 75 0 75 -118 2 c-103 2 -126 5 -174 28
l-56 25 7 -105 7 -105 -156 0 -155 0 0 -30 0 -30 933 -2 c1303 -4 1485 -4
1490 2 9 8 29 203 25 242 l-3 37 -25 -18z"/>
<path d="M2610 200 l0 -30 195 0 195 0 0 30 0 30 -195 0 -195 0 0 -30z"/>
</g>
</svg>
