<?xml version="1.0" standalone="no"?>
<!DOCTYPE svg PUBLIC "-//W3C//DTD SVG 20010904//EN"
 "http://www.w3.org/TR/2001/REC-SVG-20010904/DTD/svg10.dtd">
<svg version="1.0" xmlns="http://www.w3.org/2000/svg"
 width="272.000000pt" height="209.000000pt" viewBox="0 0 272.000000 209.000000"
 preserveAspectRatio="xMidYMid meet">

<g transform="translate(0.000000,209.000000) scale(0.100000,-0.100000)"
fill="#000000" stroke="none">
<path d="M1030 1744 c-299 -35 -382 -70 -455 -194 l-30 -50 -152 0 c-164 0
-169 -2 -137 -50 30 -45 44 -50 139 -50 51 0 94 -3 97 -6 3 -3 -1 -28 -10 -56
-15 -44 -22 -53 -66 -75 l-49 -25 7 -81 c4 -45 11 -98 16 -118 13 -46 52 -86
99 -99 52 -14 1638 -14 1696 1 87 22 112 69 117 219 l3 85 -42 19 c-35 16 -45
27 -58 64 -24 73 -26 72 79 72 111 0 122 3 141 41 31 58 29 59 -135 59 l-149
0 -36 56 c-51 79 -90 112 -164 135 -139 43 -231 51 -561 54 -173 2 -331 1
-350 -1z m288 -36 l3 -28 -96 0 c-94 0 -96 1 -93 23 2 18 11 23 53 28 28 4 68
6 90 5 36 -1 40 -4 43 -28z m171 26 c56 -6 61 -9 61 -31 0 -24 -1 -24 -92 -21
-82 3 -93 5 -96 22 -7 35 19 41 127 30z m276 -97 c151 -25 185 -37 227 -79 21
-21 38 -42 38 -48 0 -7 -235 -10 -685 -10 -558 0 -685 2 -685 13 0 24 60 75
107 91 43 15 200 40 303 50 104 9 608 -3 695 -17z m-1105 -291 l0 -54 -40 -7
c-64 -11 -68 -1 -34 83 11 26 18 32 43 32 31 0 31 0 31 -54z m1315 -1 l0 -50
-35 1 c-19 1 -160 5 -312 9 l-278 8 0 -86 c0 -70 -3 -87 -15 -87 -11 0 -15
-19 -17 -92 l-3 -93 -90 0 -90 0 0 165 0 165 75 3 c41 2 79 7 84 12 7 7 -179
6 -544 -4 l-45 -1 -3 39 c-6 72 -59 66 640 64 l633 -3 0 -50z m130 0 c11 -30
16 -57 13 -60 -3 -3 -29 -3 -57 1 l-51 7 0 47 c0 55 4 60 45 60 30 0 33 -4 50
-55z m-557 -228 l2 -168 -92 3 -93 3 -3 155 c-1 85 0 160 3 167 3 10 26 13 92
11 l88 -3 3 -168z m-724 21 c33 -47 28 -48 -169 -48 l-185 0 -6 24 c-3 14 -3
30 1 35 4 7 67 11 175 11 163 0 169 -1 184 -22z m1396 3 c0 -51 0 -51 -196
-51 -196 0 -201 1 -168 48 15 21 21 22 190 22 165 0 174 -1 174 -19z m-1360
-90 c26 -50 23 -51 -170 -51 -167 0 -180 1 -190 19 -26 50 -23 51 170 51 167
0 180 -1 190 -19z m1334 11 c3 -4 -1 -19 -7 -33 -13 -24 -13 -24 -190 -27
-190 -3 -202 1 -177 47 10 20 19 21 190 21 98 0 181 -4 184 -8z"/>
<path d="M281 1164 c-17 -21 -34 -54 -37 -73 -9 -46 2 -345 16 -446 15 -106
33 -140 89 -173 l46 -27 940 0 940 0 50 25 c29 15 57 38 68 56 22 40 47 270
47 450 0 127 -1 131 -30 177 -44 70 -56 63 -63 -39 -8 -118 -34 -169 -102
-203 l-50 -25 -850 -1 c-662 0 -858 3 -886 13 -78 28 -128 119 -129 237 -1 65
-13 72 -49 29z m1347 -496 c18 -18 15 -94 -4 -112 -13 -14 -53 -16 -279 -16
-145 0 -270 3 -279 6 -20 8 -23 119 -3 127 6 3 134 6 283 6 197 1 273 -2 282
-11z m315 -15 c5 -3 17 -19 28 -37 10 -17 19 -25 19 -17 0 31 42 61 84 61 54
0 86 -30 86 -82 0 -80 -88 -118 -144 -62 -14 15 -26 30 -26 34 0 5 -15 -7 -34
-26 -40 -40 -80 -45 -119 -14 -51 41 -43 120 15 145 29 12 67 11 91 -2z
m-1278 -18 c55 -55 15 -145 -65 -145 -56 0 -85 38 -81 107 3 60 99 86 146 38z
m185 0 c53 -57 13 -145 -66 -145 -77 0 -117 103 -58 149 38 30 94 28 124 -4z"/>
<path d="M1862 608 c-7 -7 -12 -21 -12 -33 0 -44 60 -63 80 -26 14 27 13 37
-6 55 -18 19 -45 21 -62 4z"/>
<path d="M2042 608 c-7 -7 -12 -21 -12 -33 0 -12 5 -26 12 -33 28 -28 78 -7
78 33 0 27 -18 45 -45 45 -12 0 -26 -5 -33 -12z"/>
<path d="M572 608 c-15 -15 -15 -51 0 -66 18 -18 56 -14 68 7 14 27 13 37 -6
55 -18 19 -45 21 -62 4z"/>
<path d="M750 605 c-17 -20 -5 -62 20 -70 44 -14 80 41 48 73 -17 17 -53 15
-68 -3z"/>
<path d="M245 362 c4 -56 8 -109 9 -119 1 -16 -11 -18 -126 -21 l-128 -3 0
-28 0 -28 293 -4 c160 -3 771 -2 1357 1 l1065 5 3 28 3 27 -147 0 -147 0 6
115 c3 63 4 115 2 115 -2 0 -26 -14 -53 -31 -52 -32 -130 -48 -235 -49 l-59 0
4 -72 3 -73 -755 0 -754 0 3 50 c2 28 4 61 5 75 l1 25 -120 5 c-123 6 -141 11
-204 59 l-33 25 7 -102z"/>
</g>
</svg>
