<?xml version="1.0" standalone="no"?>
<!DOCTYPE svg PUBLIC "-//W3C//DTD SVG 20010904//EN"
 "http://www.w3.org/TR/2001/REC-SVG-20010904/DTD/svg10.dtd">
<svg version="1.0" xmlns="http://www.w3.org/2000/svg"
 width="920.000000pt" height="493.000000pt" viewBox="0 0 920.000000 493.000000"
 preserveAspectRatio="xMidYMid meet">

<g transform="translate(0.000000,493.000000) scale(0.100000,-0.100000)"
fill="#000000" stroke="none">
<path d="M4463 4921 c-56 -9 -169 -42 -223 -64 l-33 -14 70 -42 c62 -37 73
-48 92 -93 11 -28 21 -55 21 -59 0 -5 -34 -9 -77 -9 -74 0 -78 1 -130 42 l-54
41 -29 -28 c-15 -15 -43 -55 -62 -89 -32 -58 -33 -66 -33 -166 1 -85 5 -116
23 -161 29 -72 99 -182 112 -174 5 3 28 40 52 81 l43 76 64 -6 c35 -3 65 -7
67 -8 1 -2 0 -33 -3 -70 -5 -57 -9 -68 -27 -74 -47 -15 -160 -89 -219 -144
-38 -36 -75 -81 -93 -117 -26 -52 -29 -67 -28 -148 1 -98 18 -155 75 -249 17
-26 28 -50 25 -53 -2 -2 -67 -9 -143 -14 -523 -34 -1053 -132 -1560 -288 -146
-45 -158 -47 -170 -27 -18 32 -126 108 -248 176 -224 125 -295 185 -377 322
l-38 62 0 -146 c0 -156 -11 -241 -61 -452 -17 -71 -33 -166 -36 -212 l-6 -83
-107 -60 c-136 -76 -281 -185 -387 -290 -46 -44 -86 -81 -89 -81 -3 0 -34 24
-67 54 -183 160 -420 295 -693 397 -59 21 -108 39 -110 39 -2 0 24 -42 57 -92
71 -110 221 -408 377 -748 102 -225 112 -251 112 -305 0 -36 8 -76 19 -100 29
-66 67 -91 193 -131 22 -7 84 -92 285 -389 141 -209 256 -387 255 -395 0 -8
-4 -43 -8 -77 -12 -111 42 -198 145 -233 48 -16 56 -25 157 -161 59 -79 107
-145 109 -146 1 -2 107 13 236 32 431 65 994 133 1364 165 458 39 752 51 1251
51 715 -1 1325 -36 2214 -127 236 -24 739 -80 790 -88 23 -4 34 11 130 170 91
152 108 174 130 174 61 1 150 64 176 127 18 42 18 110 0 161 l-15 40 257 381
257 381 37 0 c21 0 62 9 93 21 43 16 62 30 83 62 25 38 27 47 27 156 l0 116
228 498 c126 275 227 500 225 502 -2 2 -39 -19 -83 -46 -44 -28 -150 -84 -235
-126 -223 -108 -331 -169 -406 -229 l-66 -53 -77 67 c-42 37 -108 90 -146 118
-72 53 -260 165 -319 189 l-33 14 -6 143 c-5 129 -10 163 -57 348 -31 123 -54
238 -57 288 -3 45 -9 82 -12 82 -3 0 -17 -16 -31 -36 -42 -62 -136 -129 -259
-185 -183 -82 -273 -142 -402 -267 l-57 -54 -103 30 c-420 124 -935 217 -1449
262 -207 18 -213 19 -205 38 70 172 71 315 3 443 -52 98 -173 202 -281 240
-47 17 -52 26 -60 107 l-7 62 71 0 c71 0 71 0 131 -50 33 -27 63 -50 66 -50
11 1 95 108 117 148 16 29 20 56 20 127 0 81 -3 95 -29 142 -29 53 -121 162
-128 153 -2 -3 -16 -24 -31 -47 l-27 -43 -75 0 -75 0 0 38 c0 30 9 47 46 90
26 29 43 57 38 61 -13 12 -113 50 -175 67 -65 18 -253 26 -326 15z m-388
-1929 c0 -77 4 -93 30 -142 17 -30 31 -58 33 -61 1 -3 -34 5 -80 18 -128 37
-251 49 -345 35 -200 -31 -319 -144 -358 -341 -31 -150 -11 -231 130 -536 139
-301 173 -423 162 -586 l-7 -86 52 9 c112 21 212 73 286 152 90 95 132 210
132 366 0 93 16 134 64 166 83 53 145 -78 112 -236 -76 -361 -440 -608 -866
-587 -303 16 -589 158 -726 362 -88 132 -100 315 -20 315 53 0 112 -93 140
-220 45 -204 188 -308 463 -335 l72 -7 -30 72 c-54 127 -61 185 -60 495 1 252
-1 287 -19 353 -55 197 -167 345 -317 421 -116 58 -305 66 -454 18 l-76 -24
-6 100 c-4 56 -5 103 -3 105 6 6 173 48 367 92 407 92 890 156 1279 169 l45 1
0 -88z m1590 57 c399 -30 731 -84 1043 -170 79 -21 146 -39 148 -39 6 0 5
-196 -1 -202 -3 -2 -35 11 -72 29 -116 57 -228 65 -348 26 -195 -64 -363 -265
-425 -508 -19 -74 -20 -99 -14 -350 8 -297 -1 -378 -51 -492 -14 -31 -25 -58
-25 -60 0 -3 26 -2 58 2 159 19 281 63 359 130 51 44 98 136 113 224 20 112
83 211 134 211 41 0 59 -38 54 -113 -13 -177 -146 -341 -368 -456 -280 -145
-587 -160 -864 -45 -258 109 -456 384 -444 619 3 66 7 78 33 105 35 36 80 40
119 9 45 -36 56 -69 56 -176 0 -101 18 -201 46 -254 52 -101 160 -166 328
-198 l47 -9 -7 82 c-12 161 19 262 178 576 133 261 155 332 142 445 -21 189
-109 316 -261 377 -51 20 -74 23 -198 22 -136 -1 -212 -15 -327 -59 -13 -5 -9
7 15 52 30 54 32 65 32 152 l0 93 185 -6 c102 -4 244 -11 315 -17z m2109 -560
c142 -81 291 -186 374 -265 l77 -73 -65 -1 c-109 -1 -160 -34 -237 -152 -105
-163 -192 -368 -263 -623 -23 -82 -50 -179 -60 -215 -11 -35 -18 -65 -17 -67
6 -5 125 27 168 45 77 33 126 86 292 314 35 48 57 50 57 5 0 -50 -92 -198
-175 -282 -121 -122 -239 -165 -449 -165 -102 0 -132 4 -188 24 -241 85 -341
243 -280 443 39 126 132 253 187 253 34 0 33 -34 -1 -103 -37 -72 -62 -149
-74 -225 -20 -121 27 -210 141 -267 27 -14 54 -23 59 -20 6 4 10 21 10 38 0
73 63 173 228 360 148 170 198 237 235 317 17 36 41 81 53 100 67 102 94 260
58 336 -36 75 -109 124 -223 150 l-69 16 31 54 c18 29 34 54 36 54 2 0 44 -23
95 -51z m-6139 -26 c14 -21 25 -41 25 -45 0 -3 -29 -16 -65 -28 -128 -42 -217
-127 -231 -217 -11 -76 10 -147 92 -311 80 -157 121 -214 277 -391 162 -183
214 -266 225 -357 2 -24 6 -44 9 -44 2 0 18 7 36 16 106 55 149 121 155 239 4
74 1 92 -32 187 -39 115 -44 149 -22 167 36 30 141 -126 167 -248 25 -120 -12
-222 -119 -323 -37 -34 -100 -80 -141 -102 l-73 -38 -157 5 c-164 5 -203 13
-308 64 -142 68 -358 368 -293 408 15 9 83 -71 170 -200 26 -39 67 -88 90
-109 70 -63 191 -109 325 -123 l60 -6 -49 54 c-106 117 -157 220 -246 499 -64
201 -108 307 -162 395 -72 116 -131 154 -238 155 l-65 1 35 30 c83 72 488 359
506 359 2 0 15 -17 29 -37z"/>
</g>
</svg>
